<svg width="41" height="41" viewBox="0 0 41 41" fill="none" xmlns="http://www.w3.org/2000/svg">
<path d="M20.5 3.84375C11.299 3.84375 3.84375 11.299 3.84375 20.5C3.84375 29.701 11.299 37.1562 20.5 37.1562C29.701 37.1562 37.1562 29.701 37.1562 20.5C37.1562 11.299 29.701 3.84375 20.5 3.84375ZM20.1396 12.1719C21.0285 12.1719 21.7412 12.8926 21.7412 13.7734C21.7412 14.6543 21.0205 15.375 20.1396 15.375C19.2588 15.375 18.5381 14.6543 18.5381 13.7734C18.5381 12.8926 19.2508 12.1719 20.1396 12.1719ZM23.0625 28.1875H17.9375V27.5469H19.2188V17.9375H17.9375V17.2969H21.7812V27.5469H23.0625V28.1875Z" fill="white"/>
</svg>
